<mxfile host="65bd71144e">
    <diagram id="5j5GzvRzq_kGByuNJUFC" name="Page-1">
        <mxGraphModel dx="1114" dy="787" grid="1" gridSize="10" guides="1" tooltips="1" connect="1" arrows="1" fold="1" page="1" pageScale="1" pageWidth="850" pageHeight="1100" math="0" shadow="0">
            <root>
                <mxCell id="0"/>
                <mxCell id="1" parent="0"/>
                <mxCell id="2" value="Length" style="rounded=0;whiteSpace=wrap;html=1;fillColor=#FFFFCC;" parent="1" vertex="1">
                    <mxGeometry x="80" y="80" width="40" height="40" as="geometry"/>
                </mxCell>
                <mxCell id="4" value="Data" style="rounded=0;whiteSpace=wrap;html=1;fillColor=#CCFFCC;" parent="1" vertex="1">
                    <mxGeometry x="120" y="80" width="640" height="40" as="geometry"/>
                </mxCell>
                <mxCell id="5" value="CRC" style="rounded=0;whiteSpace=wrap;html=1;fillColor=#CCFFFF;" parent="1" vertex="1">
                    <mxGeometry x="760" y="80" width="40" height="40" as="geometry"/>
                </mxCell>
                <mxCell id="6" value="" style="endArrow=none;html=1;" parent="1" edge="1">
                    <mxGeometry width="50" height="50" relative="1" as="geometry">
                        <mxPoint x="80" y="140" as="sourcePoint"/>
                        <mxPoint x="800" y="140" as="targetPoint"/>
                    </mxGeometry>
                </mxCell>
                <mxCell id="7" value="" style="endArrow=none;html=1;" parent="1" edge="1">
                    <mxGeometry width="50" height="50" relative="1" as="geometry">
                        <mxPoint x="80" y="150" as="sourcePoint"/>
                        <mxPoint x="80" y="130" as="targetPoint"/>
                    </mxGeometry>
                </mxCell>
                <mxCell id="8" value="" style="endArrow=none;html=1;" parent="1" edge="1">
                    <mxGeometry width="50" height="50" relative="1" as="geometry">
                        <mxPoint x="119.81" y="150" as="sourcePoint"/>
                        <mxPoint x="119.81" y="130" as="targetPoint"/>
                    </mxGeometry>
                </mxCell>
                <mxCell id="10" value="" style="endArrow=none;html=1;" parent="1" edge="1">
                    <mxGeometry width="50" height="50" relative="1" as="geometry">
                        <mxPoint x="760" y="150" as="sourcePoint"/>
                        <mxPoint x="760" y="130" as="targetPoint"/>
                    </mxGeometry>
                </mxCell>
                <mxCell id="11" value="" style="endArrow=none;html=1;" parent="1" edge="1">
                    <mxGeometry width="50" height="50" relative="1" as="geometry">
                        <mxPoint x="800" y="150" as="sourcePoint"/>
                        <mxPoint x="800" y="130" as="targetPoint"/>
                    </mxGeometry>
                </mxCell>
                <mxCell id="12" value="1 byte" style="text;html=1;align=center;verticalAlign=middle;whiteSpace=wrap;rounded=0;" parent="1" vertex="1">
                    <mxGeometry x="70" y="140" width="60" height="30" as="geometry"/>
                </mxCell>
                <mxCell id="13" value="1 byte" style="text;html=1;align=center;verticalAlign=middle;whiteSpace=wrap;rounded=0;" parent="1" vertex="1">
                    <mxGeometry x="750" y="140" width="60" height="30" as="geometry"/>
                </mxCell>
                <mxCell id="14" value="16 bytes" style="text;html=1;align=center;verticalAlign=middle;whiteSpace=wrap;rounded=0;" parent="1" vertex="1">
                    <mxGeometry x="410" y="140" width="60" height="30" as="geometry"/>
                </mxCell>
                <mxCell id="15" value="0x01" style="rounded=0;whiteSpace=wrap;html=1;fillColor=#FFFFCC;" parent="1" vertex="1">
                    <mxGeometry x="80" y="240" width="40" height="40" as="geometry"/>
                </mxCell>
                <mxCell id="16" value="0xC4" style="rounded=0;whiteSpace=wrap;html=1;fillColor=#CCFFCC;" parent="1" vertex="1">
                    <mxGeometry x="120" y="240" width="40" height="40" as="geometry"/>
                </mxCell>
                <mxCell id="18" value="0xFF" style="rounded=0;whiteSpace=wrap;html=1;fillColor=#CCFFCC;dashed=1;glass=0;shadow=0;opacity=40;" parent="1" vertex="1">
                    <mxGeometry x="160" y="240" width="40" height="40" as="geometry"/>
                </mxCell>
                <mxCell id="19" value="&lt;span style=&quot;color: rgb(0, 0, 0);&quot;&gt;0xFF&lt;/span&gt;" style="rounded=0;whiteSpace=wrap;html=1;fillColor=#CCFFCC;dashed=1;glass=0;shadow=0;opacity=40;" parent="1" vertex="1">
                    <mxGeometry x="200" y="240" width="40" height="40" as="geometry"/>
                </mxCell>
                <mxCell id="20" value="&lt;span style=&quot;color: rgb(0, 0, 0);&quot;&gt;0xFF&lt;/span&gt;" style="rounded=0;whiteSpace=wrap;html=1;fillColor=#CCFFCC;dashed=1;glass=0;shadow=0;opacity=40;" parent="1" vertex="1">
                    <mxGeometry x="240" y="240" width="40" height="40" as="geometry"/>
                </mxCell>
                <mxCell id="21" value="&lt;span style=&quot;color: rgb(0, 0, 0);&quot;&gt;0xFF&lt;/span&gt;" style="rounded=0;whiteSpace=wrap;html=1;fillColor=#CCFFCC;dashed=1;glass=0;shadow=0;opacity=40;" parent="1" vertex="1">
                    <mxGeometry x="280" y="240" width="40" height="40" as="geometry"/>
                </mxCell>
                <mxCell id="22" value="&lt;span style=&quot;color: rgb(0, 0, 0);&quot;&gt;0xFF&lt;/span&gt;" style="rounded=0;whiteSpace=wrap;html=1;fillColor=#CCFFCC;dashed=1;glass=0;shadow=0;opacity=40;" parent="1" vertex="1">
                    <mxGeometry x="320" y="240" width="40" height="40" as="geometry"/>
                </mxCell>
                <mxCell id="23" value="&lt;span style=&quot;color: rgb(0, 0, 0);&quot;&gt;0xFF&lt;/span&gt;" style="rounded=0;whiteSpace=wrap;html=1;fillColor=#CCFFCC;dashed=1;glass=0;shadow=0;opacity=40;" parent="1" vertex="1">
                    <mxGeometry x="360" y="240" width="40" height="40" as="geometry"/>
                </mxCell>
                <mxCell id="24" value="&lt;span style=&quot;color: rgb(0, 0, 0);&quot;&gt;0xFF&lt;/span&gt;" style="rounded=0;whiteSpace=wrap;html=1;fillColor=#CCFFCC;dashed=1;glass=0;shadow=0;opacity=40;" parent="1" vertex="1">
                    <mxGeometry x="400" y="240" width="40" height="40" as="geometry"/>
                </mxCell>
                <mxCell id="25" value="&lt;span style=&quot;color: rgb(0, 0, 0);&quot;&gt;0xFF&lt;/span&gt;" style="rounded=0;whiteSpace=wrap;html=1;fillColor=#CCFFCC;dashed=1;glass=0;shadow=0;opacity=40;" parent="1" vertex="1">
                    <mxGeometry x="600" y="240" width="40" height="40" as="geometry"/>
                </mxCell>
                <mxCell id="26" value="&lt;span style=&quot;color: rgb(0, 0, 0);&quot;&gt;0xFF&lt;/span&gt;" style="rounded=0;whiteSpace=wrap;html=1;fillColor=#CCFFCC;dashed=1;glass=0;shadow=0;opacity=40;" parent="1" vertex="1">
                    <mxGeometry x="560" y="240" width="40" height="40" as="geometry"/>
                </mxCell>
                <mxCell id="27" value="&lt;span style=&quot;color: rgb(0, 0, 0);&quot;&gt;0xFF&lt;/span&gt;" style="rounded=0;whiteSpace=wrap;html=1;fillColor=#CCFFCC;dashed=1;glass=0;shadow=0;opacity=40;" parent="1" vertex="1">
                    <mxGeometry x="520" y="240" width="40" height="40" as="geometry"/>
                </mxCell>
                <mxCell id="28" value="&lt;span style=&quot;color: rgb(0, 0, 0);&quot;&gt;0xFF&lt;/span&gt;" style="rounded=0;whiteSpace=wrap;html=1;fillColor=#CCFFCC;dashed=1;glass=0;shadow=0;opacity=40;" parent="1" vertex="1">
                    <mxGeometry x="480" y="240" width="40" height="40" as="geometry"/>
                </mxCell>
                <mxCell id="29" value="&lt;span style=&quot;color: rgb(0, 0, 0);&quot;&gt;0xFF&lt;/span&gt;" style="rounded=0;whiteSpace=wrap;html=1;fillColor=#CCFFCC;dashed=1;glass=0;shadow=0;opacity=40;" parent="1" vertex="1">
                    <mxGeometry x="440" y="240" width="40" height="40" as="geometry"/>
                </mxCell>
                <mxCell id="30" value="&lt;span style=&quot;color: rgb(0, 0, 0);&quot;&gt;0xFF&lt;/span&gt;" style="rounded=0;whiteSpace=wrap;html=1;fillColor=#CCFFCC;dashed=1;glass=0;shadow=0;opacity=40;" parent="1" vertex="1">
                    <mxGeometry x="720" y="240" width="40" height="40" as="geometry"/>
                </mxCell>
                <mxCell id="31" value="&lt;span style=&quot;color: rgb(0, 0, 0);&quot;&gt;0xFF&lt;/span&gt;" style="rounded=0;whiteSpace=wrap;html=1;fillColor=#CCFFCC;dashed=1;glass=0;shadow=0;opacity=40;" parent="1" vertex="1">
                    <mxGeometry x="680" y="240" width="40" height="40" as="geometry"/>
                </mxCell>
                <mxCell id="32" value="&lt;span style=&quot;color: rgb(0, 0, 0);&quot;&gt;0xFF&lt;/span&gt;" style="rounded=0;whiteSpace=wrap;html=1;fillColor=#CCFFCC;dashed=1;glass=0;shadow=0;opacity=40;" parent="1" vertex="1">
                    <mxGeometry x="640" y="240" width="40" height="40" as="geometry"/>
                </mxCell>
                <mxCell id="34" value="0x82" style="rounded=0;whiteSpace=wrap;html=1;fillColor=#CCFFFF;" parent="1" vertex="1">
                    <mxGeometry x="760" y="240" width="40" height="40" as="geometry"/>
                </mxCell>
                <mxCell id="35" value="Example Packet (with padding)" style="text;html=1;align=center;verticalAlign=middle;whiteSpace=wrap;rounded=0;fontSize=15;fontStyle=1" parent="1" vertex="1">
                    <mxGeometry x="322.5" y="210" width="235" height="30" as="geometry"/>
                </mxCell>
                <mxCell id="66" value="&lt;font style=&quot;color: rgb(255, 51, 51);&quot;&gt;Length&lt;/font&gt;" style="whiteSpace=wrap;html=1;align=center;strokeWidth=2;" parent="1" vertex="1">
                    <mxGeometry x="80" y="360" width="40" height="40" as="geometry"/>
                </mxCell>
                <mxCell id="81" value="&lt;font style=&quot;color: rgb(255, 51, 51);&quot;&gt;Byte&lt;/font&gt;" style="whiteSpace=wrap;html=1;align=center;strokeWidth=2;" parent="1" vertex="1">
                    <mxGeometry x="120" y="360" width="40" height="40" as="geometry"/>
                </mxCell>
                <mxCell id="82" value="&lt;font style=&quot;color: rgb(255, 51, 51);&quot;&gt;Packet Type&lt;/font&gt;" style="whiteSpace=wrap;html=1;align=center;strokeWidth=2;" parent="1" vertex="1">
                    <mxGeometry x="160" y="360" width="200" height="40" as="geometry"/>
                </mxCell>
                <mxCell id="83" value="1" style="whiteSpace=wrap;html=1;align=center;" parent="1" vertex="1">
                    <mxGeometry x="80" y="400" width="40" height="40" as="geometry"/>
                </mxCell>
                <mxCell id="84" value="0x15" style="whiteSpace=wrap;html=1;align=center;" parent="1" vertex="1">
                    <mxGeometry x="120" y="400" width="40" height="40" as="geometry"/>
                </mxCell>
                <mxCell id="85" value="Acknowledge" style="whiteSpace=wrap;html=1;align=center;" parent="1" vertex="1">
                    <mxGeometry x="160" y="400" width="200" height="40" as="geometry"/>
                </mxCell>
                <mxCell id="86" value="1" style="whiteSpace=wrap;html=1;align=center;direction=north;" parent="1" vertex="1">
                    <mxGeometry x="80" y="440" width="40" height="40" as="geometry"/>
                </mxCell>
                <mxCell id="87" value="0x19" style="whiteSpace=wrap;html=1;align=center;" parent="1" vertex="1">
                    <mxGeometry x="120" y="440" width="40" height="40" as="geometry"/>
                </mxCell>
                <mxCell id="88" value="Request Retransmit" style="whiteSpace=wrap;html=1;align=center;" parent="1" vertex="1">
                    <mxGeometry x="160" y="440" width="200" height="40" as="geometry"/>
                </mxCell>
            </root>
        </mxGraphModel>
    </diagram>
    <diagram id="o1bJEVbfxFA5OGLAWrkf" name="Page-2">
        <mxGraphModel dx="928" dy="656" grid="1" gridSize="10" guides="1" tooltips="1" connect="1" arrows="1" fold="1" page="1" pageScale="1" pageWidth="850" pageHeight="1100" math="0" shadow="0">
            <root>
                <mxCell id="0"/>
                <mxCell id="1" parent="0"/>
                <mxCell id="MX3hMwH4FiU3ApJ0Ey_w-3" style="edgeStyle=none;html=1;exitX=1;exitY=0.5;exitDx=0;exitDy=0;entryX=0;entryY=0.5;entryDx=0;entryDy=0;" edge="1" parent="1" source="MX3hMwH4FiU3ApJ0Ey_w-1" target="MX3hMwH4FiU3ApJ0Ey_w-2">
                    <mxGeometry relative="1" as="geometry"/>
                </mxCell>
                <mxCell id="MX3hMwH4FiU3ApJ0Ey_w-1" value="Receive&lt;div&gt;&lt;font style=&quot;color: rgb(0, 0, 0);&quot;&gt;length byte&lt;/font&gt;&lt;/div&gt;" style="shape=ellipse;html=1;dashed=0;whiteSpace=wrap;aspect=fixed;perimeter=ellipsePerimeter;" vertex="1" parent="1">
                    <mxGeometry x="200" y="280" width="80" height="80" as="geometry"/>
                </mxCell>
                <mxCell id="MX3hMwH4FiU3ApJ0Ey_w-5" style="edgeStyle=none;html=1;" edge="1" parent="1" source="MX3hMwH4FiU3ApJ0Ey_w-2" target="MX3hMwH4FiU3ApJ0Ey_w-4">
                    <mxGeometry relative="1" as="geometry"/>
                </mxCell>
                <mxCell id="MX3hMwH4FiU3ApJ0Ey_w-2" value="&lt;font style=&quot;color: rgb(0, 0, 0);&quot;&gt;Receive&lt;/font&gt;&lt;div&gt;&lt;font style=&quot;color: rgb(0, 0, 0);&quot;&gt;data bytes&lt;/font&gt;&lt;/div&gt;" style="shape=ellipse;html=1;dashed=0;whiteSpace=wrap;aspect=fixed;perimeter=ellipsePerimeter;" vertex="1" parent="1">
                    <mxGeometry x="320" y="280" width="80" height="80" as="geometry"/>
                </mxCell>
                <mxCell id="MX3hMwH4FiU3ApJ0Ey_w-8" style="edgeStyle=none;html=1;entryX=0;entryY=0.5;entryDx=0;entryDy=0;" edge="1" parent="1" source="MX3hMwH4FiU3ApJ0Ey_w-4" target="MX3hMwH4FiU3ApJ0Ey_w-7">
                    <mxGeometry relative="1" as="geometry"/>
                </mxCell>
                <mxCell id="MX3hMwH4FiU3ApJ0Ey_w-18" value="Is ReTx" style="edgeLabel;html=1;align=center;verticalAlign=middle;resizable=0;points=[];" vertex="1" connectable="0" parent="MX3hMwH4FiU3ApJ0Ey_w-8">
                    <mxGeometry x="-0.2417" y="3" relative="1" as="geometry">
                        <mxPoint y="-7" as="offset"/>
                    </mxGeometry>
                </mxCell>
                <mxCell id="MX3hMwH4FiU3ApJ0Ey_w-10" style="edgeStyle=none;html=1;entryX=1;entryY=0.5;entryDx=0;entryDy=0;" edge="1" parent="1" source="MX3hMwH4FiU3ApJ0Ey_w-4" target="MX3hMwH4FiU3ApJ0Ey_w-21">
                    <mxGeometry relative="1" as="geometry">
                        <mxPoint x="480" y="199.9999999999999" as="targetPoint"/>
                        <Array as="points">
                            <mxPoint x="480" y="160"/>
                        </Array>
                    </mxGeometry>
                </mxCell>
                <mxCell id="MX3hMwH4FiU3ApJ0Ey_w-12" style="edgeStyle=none;html=1;exitX=0.5;exitY=1;exitDx=0;exitDy=0;entryX=1;entryY=0.5;entryDx=0;entryDy=0;" edge="1" parent="1" source="MX3hMwH4FiU3ApJ0Ey_w-4" target="MX3hMwH4FiU3ApJ0Ey_w-11">
                    <mxGeometry relative="1" as="geometry">
                        <Array as="points">
                            <mxPoint x="480" y="440"/>
                        </Array>
                    </mxGeometry>
                </mxCell>
                <mxCell id="MX3hMwH4FiU3ApJ0Ey_w-14" value="Bad CRC" style="edgeLabel;html=1;align=center;verticalAlign=middle;resizable=0;points=[];" vertex="1" connectable="0" parent="MX3hMwH4FiU3ApJ0Ey_w-12">
                    <mxGeometry x="-0.6542" y="1" relative="1" as="geometry">
                        <mxPoint y="9" as="offset"/>
                    </mxGeometry>
                </mxCell>
                <mxCell id="MX3hMwH4FiU3ApJ0Ey_w-22" style="edgeStyle=none;html=1;exitX=0.5;exitY=0;exitDx=0;exitDy=0;entryX=0.5;entryY=0;entryDx=0;entryDy=0;" edge="1" parent="1" source="MX3hMwH4FiU3ApJ0Ey_w-4" target="MX3hMwH4FiU3ApJ0Ey_w-1">
                    <mxGeometry relative="1" as="geometry">
                        <mxPoint x="240" y="80" as="targetPoint"/>
                        <Array as="points">
                            <mxPoint x="480" y="80"/>
                            <mxPoint x="240" y="80"/>
                        </Array>
                    </mxGeometry>
                </mxCell>
                <mxCell id="MX3hMwH4FiU3ApJ0Ey_w-23" value="Is Ack" style="edgeLabel;html=1;align=center;verticalAlign=middle;resizable=0;points=[];" vertex="1" connectable="0" parent="MX3hMwH4FiU3ApJ0Ey_w-22">
                    <mxGeometry x="0.5098" y="2" relative="1" as="geometry">
                        <mxPoint x="108" y="-43" as="offset"/>
                    </mxGeometry>
                </mxCell>
                <mxCell id="MX3hMwH4FiU3ApJ0Ey_w-4" value="Receive&lt;div&gt;&lt;font style=&quot;color: rgb(0, 0, 0);&quot;&gt;CRC byte&lt;/font&gt;&lt;/div&gt;&lt;div&gt;&lt;br&gt;&lt;/div&gt;" style="shape=ellipse;html=1;dashed=0;whiteSpace=wrap;aspect=fixed;perimeter=ellipsePerimeter;" vertex="1" parent="1">
                    <mxGeometry x="440" y="280" width="80" height="80" as="geometry"/>
                </mxCell>
                <mxCell id="MX3hMwH4FiU3ApJ0Ey_w-27" style="edgeStyle=orthogonalEdgeStyle;html=1;entryX=0;entryY=0.5;entryDx=0;entryDy=0;exitX=0.5;exitY=1;exitDx=0;exitDy=0;" edge="1" parent="1" target="MX3hMwH4FiU3ApJ0Ey_w-1">
                    <mxGeometry relative="1" as="geometry">
                        <mxPoint x="203.5" y="370.0000000000001" as="targetPoint"/>
                        <mxPoint x="641" y="360.0000000000001" as="sourcePoint"/>
                        <Array as="points">
                            <mxPoint x="641" y="520"/>
                            <mxPoint x="159" y="520"/>
                            <mxPoint x="159" y="320"/>
                        </Array>
                    </mxGeometry>
                </mxCell>
                <mxCell id="MX3hMwH4FiU3ApJ0Ey_w-7" value="Retransmit&lt;div&gt;&lt;font style=&quot;color: rgb(0, 0, 0);&quot;&gt;last packet&lt;/font&gt;&lt;/div&gt;" style="shape=ellipse;html=1;dashed=0;whiteSpace=wrap;aspect=fixed;perimeter=ellipsePerimeter;" vertex="1" parent="1">
                    <mxGeometry x="600" y="280" width="80" height="80" as="geometry"/>
                </mxCell>
                <mxCell id="MX3hMwH4FiU3ApJ0Ey_w-29" style="edgeStyle=none;html=1;exitX=0;exitY=0.5;exitDx=0;exitDy=0;endArrow=none;endFill=0;" edge="1" parent="1" source="MX3hMwH4FiU3ApJ0Ey_w-11">
                    <mxGeometry relative="1" as="geometry">
                        <mxPoint x="160" y="440" as="targetPoint"/>
                    </mxGeometry>
                </mxCell>
                <mxCell id="MX3hMwH4FiU3ApJ0Ey_w-11" value="Request&lt;div&gt;&lt;font style=&quot;color: rgb(0, 0, 0);&quot;&gt;retransmit&lt;/font&gt;&lt;/div&gt;" style="shape=ellipse;html=1;dashed=0;whiteSpace=wrap;aspect=fixed;perimeter=ellipsePerimeter;" vertex="1" parent="1">
                    <mxGeometry x="360" y="400" width="80" height="80" as="geometry"/>
                </mxCell>
                <mxCell id="MX3hMwH4FiU3ApJ0Ey_w-26" style="edgeStyle=none;html=1;entryX=1;entryY=0.5;entryDx=0;entryDy=0;" edge="1" parent="1" source="MX3hMwH4FiU3ApJ0Ey_w-21" target="MX3hMwH4FiU3ApJ0Ey_w-24">
                    <mxGeometry relative="1" as="geometry"/>
                </mxCell>
                <mxCell id="MX3hMwH4FiU3ApJ0Ey_w-21" value="Transmit&lt;div&gt;&lt;font style=&quot;color: rgb(0, 0, 0);&quot;&gt;acknowgedle&lt;/font&gt;&lt;/div&gt;" style="shape=ellipse;html=1;dashed=0;whiteSpace=wrap;aspect=fixed;perimeter=ellipsePerimeter;" vertex="1" parent="1">
                    <mxGeometry x="360" y="120" width="80" height="80" as="geometry"/>
                </mxCell>
                <mxCell id="MX3hMwH4FiU3ApJ0Ey_w-25" style="edgeStyle=none;html=1;" edge="1" parent="1" source="MX3hMwH4FiU3ApJ0Ey_w-24">
                    <mxGeometry relative="1" as="geometry">
                        <mxPoint x="240" y="160" as="targetPoint"/>
                    </mxGeometry>
                </mxCell>
                <mxCell id="MX3hMwH4FiU3ApJ0Ey_w-24" value="&lt;font style=&quot;color: rgb(0, 0, 0);&quot;&gt;Store packet in&amp;nbsp;&lt;span style=&quot;background-color: transparent;&quot;&gt;buffer&lt;/span&gt;&lt;/font&gt;" style="shape=ellipse;html=1;dashed=0;whiteSpace=wrap;aspect=fixed;perimeter=ellipsePerimeter;" vertex="1" parent="1">
                    <mxGeometry x="260" y="120" width="80" height="80" as="geometry"/>
                </mxCell>
            </root>
        </mxGraphModel>
    </diagram>
</mxfile>